<?xml version="1.0" encoding="utf-8"?>
<!-- Generator: Adobe Illustrator 16.0.0, SVG Export Plug-In . SVG Version: 6.00 Build 0)  -->
<!DOCTYPE svg PUBLIC "-//W3C//DTD SVG 1.1//EN" "http://www.w3.org/Graphics/SVG/1.1/DTD/svg11.dtd">
<svg version="1.1" id="Layer_4_copy" xmlns="http://www.w3.org/2000/svg" xmlns:xlink="http://www.w3.org/1999/xlink" x="0px"
	 y="0px" width="800px" height="849.819px" viewBox="0 0 800 849.819" enable-background="new 0 0 800 849.819"
	 xml:space="preserve">
<path fill="#FFFFFF" d="M619.261,31.893H143.23c-67.119,0-121.529,54.411-121.529,121.529v476.072
	c0,67.119,54.411,121.531,121.529,121.531h233.105v-292.92h-76.877V359.24h76.877c0,0,0-64.615,0-79.086
	s-2.916-111.245,120.931-111.245c16.603,0,58.612,0,91.741,0c0,42.03,0,87.501,0,100.663c-24.827,0-55.921,0-68.633,0
	c-12.711,0-25.577,13.311-25.577,23.183s0,66.112,0,66.112s79.424,0,89.743,0c-3.589,50.708-10.993,99.238-10.993,99.238H494.35
	v292.92h124.911c67.12,0,121.53-54.412,121.53-121.531V153.422C740.791,86.304,686.381,31.893,619.261,31.893z"/>
</svg>
